<svg width="24" height="20" viewBox="0 0 24 20" fill="none" xmlns="http://www.w3.org/2000/svg">
<g opacity="0.4" filter="url(#filter0_d_3918_8306)">
<path d="M7.55556 3.33366H16.4444V8.66699H7.55556V3.33366ZM18.6667 6.00033C18.6667 6.73671 19.2636 7.33366 20 7.33366V10.0003C20 10.7367 19.4031 11.3337 18.6667 11.3337H5.33333C4.59694 11.3337 4 10.7367 4 10.0003V7.33366C4.73639 7.33366 5.33333 6.73671 5.33333 6.00033C5.33333 5.26394 4.73639 4.66699 4 4.66699V2.00033C4 1.26394 4.59694 0.666992 5.33333 0.666992H18.6667C19.4031 0.666992 20 1.26394 20 2.00033V4.66699C19.2636 4.66699 18.6667 5.26394 18.6667 6.00033ZM17.3333 3.11144C17.3333 2.74324 17.0349 2.44477 16.6667 2.44477H7.33333C6.96514 2.44477 6.66667 2.74324 6.66667 3.11144V8.88921C6.66667 9.25741 6.96514 9.55588 7.33333 9.55588H16.6667C17.0349 9.55588 17.3333 9.25741 17.3333 8.88921V3.11144Z" fill="#DDE2FF"/>
</g>
<defs>
<filter id="filter0_d_3918_8306" x="0" y="0.666992" width="24" height="18.667" filterUnits="userSpaceOnUse" color-interpolation-filters="sRGB">
<feFlood flood-opacity="0" result="BackgroundImageFix"/>
<feColorMatrix in="SourceAlpha" type="matrix" values="0 0 0 0 0 0 0 0 0 0 0 0 0 0 0 0 0 0 127 0" result="hardAlpha"/>
<feOffset dy="4"/>
<feGaussianBlur stdDeviation="2"/>
<feComposite in2="hardAlpha" operator="out"/>
<feColorMatrix type="matrix" values="0 0 0 0 0 0 0 0 0 0 0 0 0 0 0 0 0 0 0.25 0"/>
<feBlend mode="normal" in2="BackgroundImageFix" result="effect1_dropShadow_3918_8306"/>
<feBlend mode="normal" in="SourceGraphic" in2="effect1_dropShadow_3918_8306" result="shape"/>
</filter>
</defs>
</svg>
